<svg width="24" height="24" viewBox="0 0 24 24" fill="none" xmlns="http://www.w3.org/2000/svg">
<g clip-path="url(#clip0)">
<path opacity="0.75" d="M2.25 8.25012C1.94762 5.46913 2.21845 4.70547 5.59656 4.50012C5.59656 4.50012 6.80331 1.50012 11.25 1.50012C15.6967 1.50012 14.0319 8.25012 9.64093 10.5001C5.25001 12.7501 5.59656 20.2501 5.59656 20.2501L2.25 17.2501L1.55219 12.0001L2.25 8.25012Z" fill="url(#paint0_linear)"/>
<path d="M23.4432 10.3852L22.3679 8.98615C22.3492 8.86301 22.3522 8.61954 22.3541 8.46645C22.355 8.39951 22.3558 8.33412 22.3558 8.27149V6.50163C22.3558 5.34527 21.5696 4.40046 20.3042 4.03605L18.5355 3.52661C18.3634 3.47711 18.2134 3.36944 18.1131 3.22342L17.0762 1.71601C16.3975 0.729339 15.1331 0.321197 14.0017 0.723432L12.2625 1.34176C12.0932 1.4019 11.9068 1.4019 11.7376 1.34176L9.99852 0.723526C8.86701 0.321291 7.60264 0.729385 6.92394 1.71611L5.88706 3.22352C5.79186 3.36194 5.65203 3.46591 5.49115 3.51855L3.64868 3.90564C3.62623 3.91038 3.60401 3.91591 3.58198 3.92224C2.40935 4.25997 1.61458 5.32577 1.6443 6.51762V8.33468C1.6443 8.39787 1.64561 8.46406 1.64702 8.53212C1.64983 8.66689 1.65433 8.88706 1.63127 8.97715L0.555813 10.3865C-0.185517 11.338 -0.185189 12.6638 0.556797 13.6149L1.63399 15.0179C1.65372 15.1032 1.64997 15.3187 1.64716 15.4788C1.64571 15.5609 1.6443 15.6448 1.6443 15.7303V17.5505C1.61735 18.6676 2.40204 19.5917 3.69593 19.9643L5.46462 20.4737C5.63665 20.5232 5.78665 20.6309 5.88706 20.7769L6.92384 22.2842C7.42766 23.0168 8.25407 23.4304 9.10954 23.4303C9.4064 23.4303 9.70691 23.3805 9.99848 23.2768L11.7375 22.6586C11.9069 22.5984 12.0932 22.5984 12.2625 22.6586L14.0015 23.2768C14.2931 23.3805 14.5935 23.4303 14.8905 23.4303C15.7458 23.4303 16.5723 23.0167 17.0761 22.2842L18.113 20.7768C18.2134 20.6309 18.3634 20.5232 18.5354 20.4737L20.3041 19.9643C21.4541 19.6331 22.3935 18.3176 22.3553 17.0917C22.3391 16.5742 21.9048 16.1664 21.3891 16.1839C20.8716 16.2 20.4652 16.6325 20.4813 17.1501C20.4925 17.5111 20.1087 18.0695 19.7852 18.1627L18.0165 18.672C17.4284 18.8415 16.914 19.2116 16.5682 19.7143L15.5314 21.2217C15.3332 21.5099 14.9624 21.6286 14.6295 21.5103L12.8904 20.892C12.3163 20.688 11.6839 20.6879 11.1096 20.892L9.37049 21.5103C9.03763 21.6286 8.66689 21.51 8.46861 21.2217L7.43183 19.7144C7.08608 19.2116 6.57172 18.8415 5.98358 18.6721L4.21488 18.1627C4.14246 18.1418 3.50768 17.9486 3.51874 17.5926C3.51907 17.5829 3.51921 17.5731 3.51921 17.5634V15.7303C3.51921 15.656 3.52057 15.5829 3.52179 15.5115C3.53032 15.0232 3.54087 14.4158 3.13362 13.8923L2.04166 12.4702C2.03983 12.4678 2.03796 12.4655 2.03613 12.4631C1.82261 12.1905 1.82261 11.8098 2.03613 11.5373C2.03852 11.5342 2.04096 11.531 2.04335 11.5279L3.1346 10.0978C3.54377 9.57064 3.53037 8.92268 3.52151 8.4934C3.52038 8.4387 3.51921 8.38545 3.51921 8.33468V6.50458C3.51921 6.49488 3.51907 6.48513 3.51874 6.47538C3.50862 6.1488 3.7407 5.84041 4.07416 5.73208L5.91687 5.34494C5.93933 5.34021 5.96154 5.33468 5.98358 5.32835C6.57167 5.15894 7.08603 4.78882 7.43183 4.28608L8.46866 2.77867C8.66685 2.49044 9.03754 2.37175 9.37049 2.49011L11.1096 3.10834C11.6837 3.31244 12.3162 3.31244 12.8905 3.10834L14.6295 2.49011C14.9625 2.37179 15.3331 2.49048 15.5314 2.77867L16.5682 4.28603C16.914 4.78882 17.4283 5.15899 18.0165 5.32835L19.7852 5.83774C20.045 5.91255 20.4808 6.09832 20.4808 6.50168V8.27154C20.4808 8.32662 20.4801 8.38409 20.4794 8.44292C20.4725 8.98864 20.464 9.66261 20.8913 10.1418L21.9587 11.5305C21.9604 11.5328 21.9622 11.5351 21.9639 11.5373C22.1774 11.8099 22.1774 12.1906 21.9639 12.4632C21.6446 12.8707 21.7163 13.46 22.1238 13.7792C22.5315 14.0984 23.1206 14.0269 23.4399 13.6192C24.1856 12.6675 24.1866 11.3383 23.4432 10.3852Z" fill="#6D6D6D"/>
<path d="M9.10797 17.5186C9.24972 17.5953 9.4024 17.6316 9.55291 17.6316C9.88615 17.6316 10.2088 17.4534 10.3784 17.1397L15.4456 7.76536C15.6918 7.30996 15.5222 6.74113 15.0667 6.49495C14.6112 6.24866 14.0424 6.4184 13.7963 6.87384L8.72913 16.2482C8.48289 16.7036 8.65253 17.2724 9.10797 17.5186Z" fill="#6D6D6D"/>
<path d="M10.4532 8.72569C10.4532 7.43344 9.40192 6.38208 8.10967 6.38208C6.81742 6.38208 5.76605 7.43339 5.76605 8.72569C5.76605 10.018 6.81737 11.0693 8.10967 11.0693C9.40192 11.0693 10.4532 10.0179 10.4532 8.72569ZM8.10967 9.1944C7.8512 9.1944 7.64096 8.98412 7.64096 8.72569C7.64096 8.46727 7.85125 8.25699 8.10967 8.25699C8.36814 8.25699 8.57837 8.46727 8.57837 8.72569C8.57837 8.98412 8.36809 9.1944 8.10967 9.1944Z" fill="#6D6D6D"/>
<path d="M15.8434 17.6316C17.1357 17.6316 18.1871 16.5803 18.1871 15.288C18.1871 13.9957 17.1357 12.9444 15.8434 12.9444C14.5512 12.9444 13.4999 13.9957 13.4999 15.288C13.4999 16.5802 14.5512 17.6316 15.8434 17.6316ZM15.8434 14.8193C16.1019 14.8193 16.3121 15.0296 16.3121 15.288C16.3121 15.5464 16.1019 15.7567 15.8434 15.7567C15.585 15.7567 15.3747 15.5464 15.3747 15.288C15.3747 15.0296 15.585 14.8193 15.8434 14.8193Z" fill="#6D6D6D"/>
</g>
<defs>
<linearGradient id="paint0_linear" x1="7.71145" y1="1.50012" x2="7.71145" y2="20.2501" gradientUnits="userSpaceOnUse">
<stop stop-color="#A8CF45"/>
<stop offset="1" stop-color="#A8CF45" stop-opacity="0"/>
</linearGradient>
<clipPath id="clip0">
<rect width="24" height="24" fill="white" transform="translate(0 0.00012207)"/>
</clipPath>
</defs>
</svg>
