<svg width="17" height="16" viewBox="0 0 17 16" fill="none" xmlns="http://www.w3.org/2000/svg">
<path opacity="0.5" d="M3.5 2.5L4 1.5L7 0C7 0 9.5 0 10.5 2.5C11.5 5 10.5 6 8 6C5.5 6 4 15 4 15L3.5 6V2.5Z" fill="url(#paint0_linear)"/>
<path d="M12.7812 10.3788V2.5C12.7812 1.81079 12.2205 1.25 11.5312 1.25H5.46875C4.77954 1.25 4.21875 1.81079 4.21875 2.5V13.5C4.21875 14.1892 4.77954 14.75 5.46875 14.75H11.5312C12.2205 14.75 12.7812 14.1892 12.7812 13.5C12.7812 13.1548 13.061 12.875 13.4062 12.875C13.7515 12.875 14.0312 13.1548 14.0312 13.5C14.0312 14.8785 12.9098 16 11.5312 16H5.46875C4.09021 16 2.96875 14.8785 2.96875 13.5V2.5C2.96875 1.12146 4.09021 0 5.46875 0H11.5312C12.9098 0 14.0312 1.12146 14.0312 2.5V10.3788C14.0312 10.724 13.7515 11.0038 13.4062 11.0038C13.061 11.0038 12.7812 10.724 12.7812 10.3788ZM7.875 13.16C7.875 13.5052 8.15479 13.785 8.5 13.785C8.84521 13.785 9.125 13.5052 9.125 13.16C9.125 12.8148 8.84521 12.535 8.5 12.535C8.15479 12.535 7.875 12.8148 7.875 13.16ZM10.1049 9.91003C10.666 9.91284 11.1616 9.74426 11.5179 9.38794L11.5249 9.38025C11.7974 9.07666 11.7806 8.61169 11.4869 8.32861C10.8986 7.76111 10.3102 7.4198 9.72534 7.99084L9.22009 8.49231C9.22009 8.49231 8.56653 8.20129 7.82739 7.46204L7.79175 7.42651C7.05249 6.68726 6.76147 6.03369 6.76147 6.03369L7.26294 5.52844C7.83398 4.94373 7.49268 4.35522 6.92517 3.76685C6.64209 3.47314 6.17712 3.45642 5.87354 3.72888L5.86572 3.73584C5.50952 4.09216 5.34094 4.58777 5.34375 5.14893C5.34875 6.14807 5.89697 7.35535 6.89551 8.35474C7.8949 9.35327 9.10217 9.90161 10.1014 9.90649L10.1049 9.91003Z" fill="#A8CF45"/>
<defs>
<linearGradient id="paint0_linear" x1="7.1916" y1="0" x2="7.1916" y2="15" gradientUnits="userSpaceOnUse">
<stop stop-color="#A8CF45"/>
<stop offset="1" stop-color="#A8CF45" stop-opacity="0"/>
</linearGradient>
</defs>
</svg>
