<svg width="42" height="42" viewBox="0 0 42 42" fill="none" xmlns="http://www.w3.org/2000/svg">
<g filter="url(#filter0_d)">
<rect x="5" y="4.00003" width="32" height="32" rx="6" fill="white"/>
<rect x="5.5" y="4.50003" width="31" height="31" rx="5.5" stroke="url(#paint0_linear)"/>
</g>
<g clip-path="url(#clip0)">
<path opacity="0.75" d="M14.0348 14.5C13.8332 12.646 14.479 12.1369 16.731 12C16.731 12 17.2332 12 20.1976 12C23.1621 12 22.3546 15.5 19.4273 17C16.5 18.5 16.731 22 16.731 22L14.0348 21.5V18V14.5Z" fill="url(#paint1_linear)"/>
<path d="M27.75 24.875C27.4048 24.875 27.125 25.1548 27.125 25.5C27.125 26.1893 26.5642 26.75 25.875 26.75H16.125C15.4358 26.75 14.875 26.1893 14.875 25.5V18.5625C14.875 18.2173 14.5952 17.9375 14.25 17.9375C13.9048 17.9375 13.625 18.2173 13.625 18.5625V25.5C13.625 26.8785 14.7465 28 16.125 28H25.875C27.2535 28 28.375 26.8785 28.375 25.5C28.375 25.1548 28.0952 24.875 27.75 24.875Z" fill="#6D6D6D"/>
<path d="M27.125 12H14.875C13.8411 12 13 12.8412 13 13.875V15.75C13 16.0952 13.2798 16.375 13.625 16.375H27.125V22.3438C27.125 22.689 27.4048 22.9688 27.75 22.9688C28.0952 22.9688 28.375 22.689 28.375 22.3438V16.375C28.7202 16.375 29 16.0952 29 15.75V13.875C29 12.8412 28.1589 12 27.125 12ZM27.75 15.125H14.25V13.875C14.25 13.5304 14.5304 13.25 14.875 13.25H27.125C27.4696 13.25 27.75 13.5304 27.75 13.875V15.125Z" fill="#6D6D6D"/>
<path d="M22.375 18.875C22.7202 18.875 23 18.5952 23 18.25C23 17.9048 22.7202 17.625 22.375 17.625H19.5625C19.2173 17.625 18.9375 17.9048 18.9375 18.25C18.9375 18.5952 19.2173 18.875 19.5625 18.875H22.375Z" fill="#6D6D6D"/>
</g>
<defs>
<filter id="filter0_d" x="0" y="3.05176e-05" width="42" height="42" filterUnits="userSpaceOnUse" color-interpolation-filters="sRGB">
<feFlood flood-opacity="0" result="BackgroundImageFix"/>
<feColorMatrix in="SourceAlpha" type="matrix" values="0 0 0 0 0 0 0 0 0 0 0 0 0 0 0 0 0 0 127 0"/>
<feOffset dy="1"/>
<feGaussianBlur stdDeviation="2.5"/>
<feColorMatrix type="matrix" values="0 0 0 0 0 0 0 0 0 0 0 0 0 0 0 0 0 0 0.05 0"/>
<feBlend mode="normal" in2="BackgroundImageFix" result="effect1_dropShadow"/>
<feBlend mode="normal" in="SourceGraphic" in2="effect1_dropShadow" result="shape"/>
</filter>
<linearGradient id="paint0_linear" x1="21" y1="4.00003" x2="21" y2="36" gradientUnits="userSpaceOnUse">
<stop stop-opacity="0.01"/>
<stop offset="0.557292" stop-opacity="0.05"/>
</linearGradient>
<linearGradient id="paint1_linear" x1="18.0305" y1="12" x2="18.0305" y2="22" gradientUnits="userSpaceOnUse">
<stop stop-color="#A8CF45"/>
<stop offset="1" stop-color="#A8CF45" stop-opacity="0"/>
</linearGradient>
<clipPath id="clip0">
<rect width="16" height="16" fill="white" transform="translate(13 12)"/>
</clipPath>
</defs>
</svg>
