<svg width="24" height="24" viewBox="0 0 24 24" fill="none" xmlns="http://www.w3.org/2000/svg">
<g clip-path="url(#clip0)">
<path opacity="0.75" d="M2.25 17.2501C1.94762 14.4691 0.750004 7.50012 1.5 7.50012C1.5 7.50012 5.30331 0.750125 9.75 0.750122C14.1967 0.750119 12.5318 5.25012 8.14093 7.50012C3.75 9.75012 4.5 18.7501 4.5 18.7501L2.25 17.2501Z" fill="url(#paint0_linear)"/>
<path d="M20.4853 3.51481C18.2188 1.24836 15.2053 0.00012207 12 0.00012207C8.79469 0.00012207 5.78123 1.24836 3.51469 3.51481C1.24823 5.78136 0 8.79481 0 12.0001C0 15.2054 1.24823 18.2189 3.51469 20.4854C5.78123 22.7519 8.79469 24.0001 12 24.0001C14.1943 24.0001 16.3414 23.4021 18.2092 22.2708C18.652 22.0025 18.7935 21.426 18.5253 20.9832C18.257 20.5403 17.6805 20.3988 17.2377 20.667C15.93 21.4592 14.4592 21.9409 12.9375 22.0815V12.9376H16.3061C16.4053 14.229 16.71 15.4836 17.2163 16.6784C17.3677 17.0358 17.7148 17.2504 18.0799 17.2504C18.2019 17.2504 18.3259 17.2264 18.4453 17.1758C18.922 16.9738 19.1447 16.4236 18.9427 15.9469C18.5351 14.9848 18.2828 13.976 18.1881 12.9376H22.0811C21.925 14.6014 21.3546 16.204 20.4082 17.6197C20.1203 18.0502 20.236 18.6324 20.6664 18.9201C21.0969 19.208 21.6791 19.0922 21.9668 18.6618C23.297 16.6723 24 14.3688 24 12.0001C24 8.79481 22.7518 5.78136 20.4853 3.51481ZM1.91883 12.9376H5.81119C5.63991 14.7776 4.96791 16.5396 3.8678 18.025C2.79183 16.5765 2.09353 14.8318 1.91883 12.9376ZM11.0625 22.0813C8.78958 21.8717 6.73205 20.9078 5.14298 19.4426C6.62011 17.5754 7.5067 15.3072 7.69266 12.9377H11.0625V22.0813ZM11.0625 11.0626H7.69378C7.59595 9.78978 7.29848 8.55228 6.80512 7.37272C6.6053 6.89511 6.0563 6.66968 5.57845 6.86961C5.1008 7.06939 4.87556 7.61862 5.07534 8.09623C5.47237 9.0454 5.71861 10.0398 5.81198 11.0626H1.91883C2.36498 6.22639 6.22631 2.36511 11.0625 1.9189V11.0626ZM16.3073 11.0626H12.9375V1.9189C15.2103 2.12858 17.2677 3.09233 18.8567 4.55736C17.3786 6.42561 16.4929 8.69079 16.3073 11.0626ZM18.1886 11.0626C18.3595 9.22109 19.0317 7.4615 20.1325 5.97561C21.2084 7.42409 21.9065 9.16864 22.0812 11.0626H18.1886Z" fill="#6D6D6D"/>
</g>
<defs>
<linearGradient id="paint0_linear" x1="6.81385" y1="0.750122" x2="6.81385" y2="18.7501" gradientUnits="userSpaceOnUse">
<stop stop-color="#A8CF45"/>
<stop offset="1" stop-color="#A8CF45" stop-opacity="0"/>
</linearGradient>
<clipPath id="clip0">
<rect width="24" height="24" fill="white" transform="translate(0 0.00012207)"/>
</clipPath>
</defs>
</svg>
