<svg width="24" height="24" viewBox="0 0 24 24" fill="none" xmlns="http://www.w3.org/2000/svg">
<g clip-path="url(#clip0)">
<path opacity="0.75" d="M20.9612 7.87512C21.1862 5.37223 20.4652 4.68493 17.9508 4.50012C17.9508 4.50012 17.3902 4.50012 14.0804 4.50012C10.7706 4.50012 11.6722 9.22512 14.9405 11.2501C18.2088 13.2751 17.9508 18.0001 17.9508 18.0001L20.9612 17.3251V12.6001V7.87512Z" fill="url(#paint0_linear)"/>
<path d="M23.7099 20.5766L22.1678 17.7563V5.0154C22.1678 4.49776 21.7482 4.07808 21.2303 4.07808H19.3086C18.7908 4.07808 18.3711 4.49776 18.3711 5.0154C18.3711 5.53322 18.7908 5.9529 19.3086 5.9529H20.2928V16.968H3.79394V5.9529H4.49688C5.0147 5.9529 5.43438 5.53322 5.43438 5.0154C5.43438 4.49776 5.0147 4.07808 4.49688 4.07808H2.85644C2.33862 4.07808 1.91894 4.49776 1.91894 5.0154V17.5847L0.283075 20.5766C-0.110601 21.2966 -0.0928402 22.1528 0.330683 22.8671C0.767389 23.6035 1.53716 24.0434 2.38989 24.0434H21.65C22.4877 24.0434 23.2427 23.6136 23.6695 22.8938C24.0954 22.1755 24.1106 21.3092 23.7099 20.5766ZM22.0569 21.9375C22.0157 22.0069 21.8935 22.1707 21.65 22.1707H15.2281C15.2025 21.676 14.7944 21.2803 14.2932 21.2803H9.65294C9.15178 21.2803 8.74364 21.676 8.71801 22.1707H2.38989C2.11742 22.1707 1.97918 21.9713 1.94347 21.9107C1.89422 21.828 1.82684 21.6612 1.92809 21.476L3.3435 18.8875H20.6495L22.0649 21.476C22.1757 21.6787 22.1074 21.8521 22.0569 21.9375Z" fill="#6D6D6D"/>
<rect x="9" y="4.08014" width="12.45" height="1.89" rx="0.635" fill="#6D6D6D"/>
</g>
<defs>
<linearGradient id="paint0_linear" x1="16.5" y1="4.50012" x2="16.5" y2="18.0001" gradientUnits="userSpaceOnUse">
<stop stop-color="#A8CF45"/>
<stop offset="1" stop-color="#A8CF45" stop-opacity="0"/>
</linearGradient>
<clipPath id="clip0">
<rect width="24" height="24" fill="white" transform="translate(0 0.00012207)"/>
</clipPath>
</defs>
</svg>
