<svg width="24" height="24" viewBox="0 0 24 24" fill="none" xmlns="http://www.w3.org/2000/svg">
<g clip-path="url(#clip0)">
<path opacity="0.75" d="M4.55218 3.75012C4.24979 0.969129 5.21844 0.205469 8.59655 0.00012207C8.59655 0.00012207 9.34977 0.000124823 13.7965 0.00012207C18.2432 0.000119318 17.0318 5.25012 12.6409 7.50012C8.25 9.75012 8.59655 22.5001 8.59655 22.5001H4.55218V9.00012V3.75012Z" fill="url(#paint0_linear)"/>
<path d="M19.3594 16.5058C19.8772 16.5058 20.2969 16.0861 20.2969 15.5683V3.75012C20.2969 1.68237 18.6146 0.00012207 16.5469 0.00012207H7.45312C5.38538 0.00012207 3.70312 1.68237 3.70312 3.75012V20.2501C3.70312 22.3179 5.38538 24.0001 7.45312 24.0001H16.5469C18.6146 24.0001 20.2969 22.3179 20.2969 20.2501C20.2969 19.7323 19.8772 19.3126 19.3594 19.3126C18.8416 19.3126 18.4219 19.7323 18.4219 20.2501C18.4219 21.284 17.5807 22.1251 16.5469 22.1251H7.45312C6.41925 22.1251 5.57812 21.284 5.57812 20.2501V3.75012C5.57812 2.71625 6.41925 1.87512 7.45312 1.87512H16.5469C17.5807 1.87512 18.4219 2.71625 18.4219 3.75012V15.5683C18.4219 16.0861 18.8416 16.5058 19.3594 16.5058Z" fill="#6D6D6D"/>
<path d="M13.75 10.9376C13.75 10.4198 13.3303 10.0001 12.8125 10.0001H10.9375C10.4197 10.0001 10 10.4198 10 10.9376C10 11.4554 10.4197 11.8751 10.9375 11.8751H12.8125C13.3303 11.8751 13.75 11.4554 13.75 10.9376Z" fill="#6D6D6D"/>
<path d="M11.75 10.9376C11.75 10.4198 11.3303 10.0001 10.8125 10.0001H8.9375C8.41972 10.0001 8 10.4198 8 10.9376C8 11.4554 8.41972 11.8751 8.9375 11.8751H10.8125C11.3303 11.8751 11.75 11.4554 11.75 10.9376Z" fill="#6D6D6D"/>
<path d="M15.75 10.9376C15.75 10.4198 15.3303 10.0001 14.8125 10.0001H12.9375C12.4197 10.0001 12 10.4198 12 10.9376C12 11.4554 12.4197 11.8751 12.9375 11.8751H14.8125C15.3303 11.8751 15.75 11.4554 15.75 10.9376Z" fill="#6D6D6D"/>
<path d="M17.75 10.9376C17.75 10.4198 17.3303 10.0001 16.8125 10.0001H14.9375C14.4197 10.0001 14 10.4198 14 10.9376C14 11.4554 14.4197 11.8751 14.9375 11.8751H16.8125C17.3303 11.8751 17.75 11.4554 17.75 10.9376Z" fill="#6D6D6D"/>
<path d="M19.75 10.9376C19.75 10.4198 19.3303 10.0001 18.8125 10.0001H16.9375C16.4197 10.0001 16 10.4198 16 10.9376C16 11.4554 16.4197 11.8751 16.9375 11.8751H18.8125C19.3303 11.8751 19.75 11.4554 19.75 10.9376Z" fill="#6D6D6D"/>
</g>
<defs>
<linearGradient id="paint0_linear" x1="10.5458" y1="0.00012207" x2="10.5458" y2="22.5001" gradientUnits="userSpaceOnUse">
<stop stop-color="#A8CF45"/>
<stop offset="1" stop-color="#A8CF45" stop-opacity="0"/>
</linearGradient>
<clipPath id="clip0">
<rect width="24" height="24" fill="white" transform="translate(0 0.00012207)"/>
</clipPath>
</defs>
</svg>
