<svg width="24" height="24" viewBox="0 0 24 24" fill="none" xmlns="http://www.w3.org/2000/svg">
<g clip-path="url(#clip0)">
<path opacity="0.75" d="M4.55217 11.2501C4.55219 10.5001 8.59656 7.5001 9.75001 6.7501C9.75001 6.7501 12.4536 4.50009 15 1.50009C17.5465 -1.49991 17.0319 5.2501 12.6409 7.5001C8.25001 9.7501 8.59656 15.0001 8.59656 15.0001L4.55218 14.2501L4.55217 12.0001V11.2501Z" fill="url(#paint0_linear)"/>
<path d="M20.1579 9.56679C19.7848 8.75459 18.9938 8.24998 18.0936 8.24998H14.7569L17.7512 2.98348C18.115 2.36586 18.121 1.62598 17.7666 1.00198C17.4103 0.374653 16.7669 0.00012207 16.0455 0.00012207C15.5937 0.00012207 15.1515 0.156638 14.8003 0.440888C14.7826 0.455185 14.7654 0.470138 14.7488 0.4857L4.60609 9.99547C3.93338 10.5808 3.58084 11.4179 3.63831 12.2955C3.73749 13.8106 4.9516 14.953 6.46234 14.953H9.63155L6.42338 21.1134C6.42015 21.1196 6.41696 21.1258 6.41387 21.1321C5.97769 22.0175 6.23218 23.0391 7.03276 23.6165C7.38933 23.8736 7.79523 24.0002 8.19798 24.0001C8.6994 24.0001 9.1959 23.8039 9.58543 23.4194C9.59541 23.4095 9.60516 23.3994 9.61472 23.3892L16.8803 15.5431C17.232 15.1632 17.2092 14.57 16.8293 14.2182C16.4494 13.8665 15.8563 13.8893 15.5045 14.2692L8.25568 22.0972C8.22549 22.1254 8.19441 22.1426 8.12949 22.0958C8.0604 22.0459 8.07226 22.0095 8.09176 21.9692L12.0083 14.4486C12.1597 14.158 12.1483 13.8094 11.9783 13.5293C11.8084 13.2491 11.5045 13.0781 11.1768 13.0781H6.46243C5.87565 13.0781 5.5388 12.6228 5.50937 12.173C5.49573 11.9646 5.5426 11.6621 5.84345 11.4043C5.85404 11.3952 5.86449 11.3858 5.87471 11.3762L15.9933 1.88904C16.0091 1.87995 16.0271 1.87508 16.0455 1.87508C16.0636 1.87508 16.1062 1.87508 16.1362 1.92786C16.1662 1.98064 16.1444 2.01715 16.1351 2.03276C16.1318 2.03834 16.1285 2.04397 16.1253 2.04964L12.3305 8.72412C12.1655 9.01433 12.1673 9.37039 12.3352 9.6589C12.503 9.94747 12.8116 10.125 13.1455 10.125H18.0935C18.3175 10.125 18.4155 10.2656 18.454 10.3494C18.4934 10.4352 18.5372 10.6053 18.3873 10.7798C18.05 11.1725 18.0949 11.7645 18.4877 12.1018C18.8805 12.4391 19.4723 12.3942 19.8097 12.0014C20.3991 11.3152 20.5325 10.3824 20.1579 9.56679Z" fill="#6D6D6D"/>
</g>
<defs>
<linearGradient id="paint0_linear" x1="10.5433" y1="0.744446" x2="10.5433" y2="15.0001" gradientUnits="userSpaceOnUse">
<stop stop-color="#A8CF45"/>
<stop offset="1" stop-color="#A8CF45" stop-opacity="0"/>
</linearGradient>
<clipPath id="clip0">
<rect width="24" height="24" fill="white" transform="translate(0 0.00012207)"/>
</clipPath>
</defs>
</svg>
