<svg width="24" height="24" viewBox="0 0 24 24" fill="none" xmlns="http://www.w3.org/2000/svg">
<g clip-path="url(#clip0)">
<path opacity="0.75" d="M2.25 10.5001C1.94762 7.71913 3 9.00012 4.5 4.50012C4.5 4.50012 6.34976 0.000124823 10.7965 0.00012207C15.2432 0.000119318 14.0318 5.25012 9.64092 7.50012C5.25 9.75012 5.59655 15.0001 5.59655 15.0001H3.75L2.25 11.2501V10.5001Z" fill="url(#paint0_linear)"/>
<path d="M19.1263 2.95193C17.2228 1.04843 14.692 0.00012207 12 0.00012207C9.30802 0.00012207 6.77719 1.04843 4.87369 2.95193C2.97019 4.85543 1.92188 7.38626 1.92188 10.0782C1.92188 12.7702 2.97019 15.3011 4.87369 17.2046C6.55444 18.8854 8.72447 19.8987 11.0625 20.1131V23.0626C11.0625 23.5804 11.4822 24.0001 12 24.0001C12.5178 24.0001 12.9375 23.5804 12.9375 23.0626V20.1125C14.4528 19.9716 15.9177 19.4908 17.2207 18.7003C17.6633 18.4318 17.8045 17.8552 17.5359 17.4125C17.2674 16.9699 16.6909 16.8288 16.2481 17.0973C15.2386 17.7097 14.1088 18.0928 12.9375 18.2269V15.4066C15.3777 15.0228 17.25 12.9057 17.25 10.3594C17.25 9.84167 16.8303 9.42195 16.3125 9.42195C15.7948 9.42195 15.375 9.84167 15.375 10.3594C15.375 11.868 14.3369 13.1383 12.9375 13.4943V8.1095C12.9375 7.59172 12.5178 7.172 12 7.172C11.4823 7.172 11.0625 7.59172 11.0625 8.1095V13.4815C9.68705 13.1094 8.67192 11.8511 8.67192 10.3595C8.67192 9.84172 8.2522 9.422 7.73442 9.422C7.21664 9.422 6.79692 9.84172 6.79692 10.3595C6.79692 12.8894 8.64534 14.9954 11.0625 15.3988V18.2275C6.97922 17.7607 3.79688 14.2844 3.79688 10.0782C3.79688 5.55504 7.4768 1.87512 12 1.87512C16.5232 1.87512 20.2031 5.55504 20.2031 10.0782C20.2031 11.4952 19.8363 12.8915 19.1424 14.1161C18.8871 14.5665 19.0454 15.1386 19.4958 15.3939C19.9463 15.6492 20.5184 15.4909 20.7737 15.0405C21.627 13.5345 22.0781 11.8186 22.0781 10.0782C22.0781 7.38626 21.0298 4.85543 19.1263 2.95193Z" fill="#6D6D6D"/>
</g>
<defs>
<linearGradient id="paint0_linear" x1="7.89477" y1="0.00012207" x2="7.89477" y2="15.0001" gradientUnits="userSpaceOnUse">
<stop stop-color="#A8CF45"/>
<stop offset="1" stop-color="#A8CF45" stop-opacity="0"/>
</linearGradient>
<clipPath id="clip0">
<rect width="24" height="24" fill="white" transform="translate(0 0.00012207)"/>
</clipPath>
</defs>
</svg>
