<svg width="24" height="24" viewBox="0 0 24 24" fill="none" xmlns="http://www.w3.org/2000/svg">
<g clip-path="url(#clip0)">
<path opacity="0.75" d="M1.5 10.5001C1.19762 7.71911 1.87189 3.95546 5.25 3.75011C5.25 3.75011 7.5 1.5001 10.5 0.750108C13.5 0.000118434 12.5318 5.25011 8.14092 7.50011C3.75 9.75011 4.09655 15.0001 4.09655 15.0001L0.75 13.5001V11.2501L1.5 10.5001Z" fill="url(#paint0_linear)"/>
<path d="M20.5048 3.53571C18.2438 1.26355 15.2334 0.00799562 12.0281 0.00012207C12.0181 0.00012207 12.0082 0.00012207 11.9979 0.00012207C8.80402 0.00012207 5.79908 1.2403 3.53425 3.49414C1.26227 5.75513 0.0067206 8.76556 -0.00115295 11.9708C-0.00902649 15.1761 1.23188 18.1926 3.49287 20.4647C5.75385 22.7367 8.76411 23.9922 11.9696 24.0001H11.999C14.1831 24.0001 16.3209 23.4076 18.1829 22.2859C18.6264 22.0187 18.7694 21.4427 18.5022 20.9992C18.2349 20.5555 17.6586 20.4127 17.2153 20.6799C16.4613 21.134 15.6534 21.485 14.8134 21.7274C14.8168 21.1184 14.8253 20.5649 14.839 20.0498C14.8727 18.7798 15.4996 17.6486 16.5591 16.9464C17.6178 16.2447 18.9027 16.1081 20.0842 16.5715C20.3399 16.6719 20.5973 16.777 20.8546 16.8856C20.7123 17.1425 20.5587 17.3942 20.3931 17.6403C20.1044 18.0701 20.2186 18.6525 20.6484 18.9413C21.0779 19.23 21.6606 19.116 21.9493 18.6862C23.2844 16.6999 23.993 14.3981 23.9988 12.0294C24.0065 8.82416 22.7658 5.80768 20.5048 3.53571ZM4.857 4.82312C6.76789 2.92139 9.30299 1.87512 11.9981 1.87512H12.0236C14.728 1.88171 17.2681 2.94116 19.1758 4.85828C20.7907 6.48096 21.7884 8.55371 22.0528 10.7922C18.3001 10.4877 15.5961 8.59473 15.0739 8.20361C14.3424 7.31665 13.2355 6.75012 11.9988 6.75012C10.7614 6.75012 9.654 7.3172 8.92268 8.20508C8.40357 8.59674 5.7187 10.4884 1.94526 10.7924C2.21186 8.53632 3.22242 6.44983 4.857 4.82312ZM10.2839 9.50861C10.328 9.46283 10.3666 9.41339 10.3996 9.36139C10.7869 8.91113 11.3598 8.62512 11.9988 8.62512C12.6379 8.62512 13.2108 8.91113 13.5981 9.36139C13.6312 9.41357 13.6697 9.46283 13.7138 9.50861C13.9617 9.85449 14.1082 10.2775 14.1082 10.7345C14.1082 11.8976 13.1619 12.8439 11.9988 12.8439C10.8358 12.8439 9.88947 11.8976 9.88947 10.7345C9.88947 10.2775 10.036 9.85449 10.2839 9.50861ZM3.12922 16.8914C3.39124 16.7808 3.65327 16.6737 3.91346 16.5715C5.09486 16.1081 6.37989 16.2447 7.43842 16.9464C8.49805 17.6486 9.12501 18.7798 9.1587 20.0498C9.17243 20.5656 9.18085 21.1201 9.18433 21.7302C7.55048 21.2603 6.05414 20.3803 4.82185 19.142C4.14692 18.4637 3.58021 17.7064 3.12922 16.8914ZM20.7689 14.8262C19.8749 14.4755 18.9457 14.3549 18.0067 14.4675C17.1271 14.5729 16.2683 14.8897 15.5234 15.3834C14.778 15.8774 14.1513 16.5453 13.7111 17.3151C13.2412 18.1364 12.99 19.0398 12.9645 20.0002C12.9479 20.6297 12.9387 21.3132 12.9367 22.0815C12.626 22.1103 12.3131 22.1251 11.999 22.1251C11.9908 22.1251 11.9824 22.1251 11.9741 22.1251C11.6674 22.1244 11.3627 22.1094 11.061 22.0817C11.059 21.3134 11.0498 20.6297 11.0331 20.0002C11.0077 19.0398 10.7565 18.1364 10.2866 17.3151C9.84644 16.5453 9.21967 15.8774 8.47443 15.3834C7.72938 14.8897 6.87061 14.5729 5.99097 14.4675C5.05201 14.3549 4.12275 14.4755 3.22883 14.8262C2.94685 14.9368 2.66267 15.0532 2.37867 15.1732C2.11518 14.3717 1.95258 13.5342 1.89637 12.676C4.44685 12.5059 6.56245 11.7004 8.02088 10.9535C8.13477 13.049 9.87537 14.7189 11.9988 14.7189C14.1223 14.7189 15.8629 13.049 15.977 10.9535C17.4352 11.7002 19.5505 12.5059 22.1006 12.676C22.0433 13.5269 21.8779 14.3635 21.6095 15.1691C21.3288 15.0505 21.0477 14.9355 20.7689 14.8262Z" fill="#6D6D6D"/>
</g>
<defs>
<linearGradient id="paint0_linear" x1="6.49086" y1="0.677429" x2="6.49086" y2="15.0001" gradientUnits="userSpaceOnUse">
<stop stop-color="#A8CF45"/>
<stop offset="1" stop-color="#A8CF45" stop-opacity="0"/>
</linearGradient>
<clipPath id="clip0">
<rect width="24.0001" height="24" fill="white" transform="translate(0 0.00012207)"/>
</clipPath>
</defs>
</svg>
