<svg width="24" height="24" viewBox="0 0 24 24" fill="none" xmlns="http://www.w3.org/2000/svg">
<path opacity="0.75" d="M1.55218 6.75012C1.24979 3.96913 2.21844 3.20547 5.59655 3.00012C5.59655 3.00012 6.34977 3.00012 10.7965 3.00012C15.2432 3.00012 14.0318 8.25012 9.64092 10.5001C5.25 12.7501 5.59655 18.0001 5.59655 18.0001L1.55218 17.2501V12.0001V6.75012Z" fill="url(#paint0_linear)"/>
<path d="M23.0625 11.0654C23.5803 11.0654 24 10.6457 24 10.1279V5.44043C24 3.37268 22.3177 1.69043 20.25 1.69043H3.75C1.68225 1.69043 0 3.37268 0 5.44043V14.8154C0 16.8832 1.68225 18.5654 3.75 18.5654H11.0625V20.4347H7.78125C7.26347 20.4347 6.84375 20.8544 6.84375 21.3722C6.84375 21.89 7.26347 22.3097 7.78125 22.3097H16.2188C16.7365 22.3097 17.1562 21.89 17.1562 21.3722C17.1562 20.8544 16.7365 20.4347 16.2188 20.4347H12.9375V18.5654H20.25C22.3177 18.5654 24 16.8832 24 14.8154C24 14.2976 23.5803 13.8779 23.0625 13.8779C22.5447 13.8779 22.125 14.2976 22.125 14.8154C22.125 15.8493 21.2839 16.6904 20.25 16.6904H3.75C2.71613 16.6904 1.875 15.8493 1.875 14.8154V5.44043C1.875 4.40655 2.71613 3.56543 3.75 3.56543H20.25C21.2839 3.56543 22.125 4.40655 22.125 5.44043V10.1279C22.125 10.6457 22.5447 11.0654 23.0625 11.0654Z" fill="#6D6D6D"/>
<defs>
<linearGradient id="paint0_linear" x1="7.54575" y1="3.00012" x2="7.54575" y2="18.0001" gradientUnits="userSpaceOnUse">
<stop stop-color="#A8CF45"/>
<stop offset="1" stop-color="#A8CF45" stop-opacity="0"/>
</linearGradient>
</defs>
</svg>
