<svg width="24" height="24" viewBox="0 0 24 24" fill="none" xmlns="http://www.w3.org/2000/svg">
<g clip-path="url(#clip0)">
<path opacity="0.75" d="M1.55218 3.75012C1.24979 0.969129 2.21844 0.205469 5.59655 0.00012207C5.59655 0.00012207 6.34977 0.000124823 10.7965 0.00012207C15.2432 0.000119318 14.0318 5.25012 9.64092 7.50012C5.25 9.75012 5.59655 15.0001 5.59655 15.0001L1.55218 14.2501V9.00012V3.75012Z" fill="url(#paint0_linear)"/>
<path d="M20.7571 0.00012207H3.24291C2.0889 0.00012207 1.15332 0.9357 1.15332 2.08972V21.9105C1.15332 23.0646 2.0889 24.0001 3.24291 24.0001H20.7571C21.9111 24.0001 22.8467 23.0645 22.8467 21.9105V2.08972C22.8467 0.9357 21.9111 0.00012207 20.7571 0.00012207ZM2.80093 2.10467C2.80093 1.86092 3.01904 1.64773 3.2627 1.64773H20.7923C21.036 1.64773 21.254 1.86092 21.254 2.10467V4.83308H2.80093V2.10467ZM21.254 21.9505C21.254 22.1943 21.0359 22.4075 20.7923 22.4075H3.2627C3.01895 22.4075 2.80093 22.1943 2.80093 21.9505V6.48068H21.254V21.9505Z" fill="#6D6D6D"/>
<path d="M11.9972 10.8018C9.98962 10.8018 8.35645 12.4351 8.35645 14.4426C8.35645 16.4502 9.98966 18.0834 11.9972 18.0834C14.0047 18.0834 15.638 16.4501 15.638 14.4426C15.638 12.4351 14.0047 10.8018 11.9972 10.8018ZM11.9972 16.4359C10.8981 16.4359 10.004 15.5417 10.004 14.4427C10.004 13.3436 10.8981 12.4495 11.9972 12.4495C13.0963 12.4495 13.9904 13.3436 13.9904 14.4427C13.9904 15.5417 13.0963 16.4359 11.9972 16.4359Z" fill="#6D6D6D"/>
<path d="M8.29287 2.47162H4.66817C4.2132 2.47162 3.84439 2.84048 3.84439 3.2954C3.84439 3.75032 4.21325 4.11918 4.66817 4.11918H8.29287C8.74784 4.11918 9.11666 3.75032 9.11666 3.2954C9.11666 2.84048 8.74784 2.47162 8.29287 2.47162Z" fill="#6D6D6D"/>
<path d="M19.0715 4.21467C19.598 4.21467 20.0248 3.78784 20.0248 3.26133C20.0248 2.73481 19.598 2.30798 19.0715 2.30798C18.545 2.30798 18.1181 2.73481 18.1181 3.26133C18.1181 3.78784 18.545 4.21467 19.0715 4.21467Z" fill="#6D6D6D"/>
<path d="M16.4112 4.21467C16.9377 4.21467 17.3645 3.78784 17.3645 3.26133C17.3645 2.73481 16.9377 2.30798 16.4112 2.30798C15.8847 2.30798 15.4578 2.73481 15.4578 3.26133C15.4578 3.78784 15.8847 4.21467 16.4112 4.21467Z" fill="#6D6D6D"/>
<path d="M18.6727 12.5766C18.5661 12.5766 18.4645 12.5975 18.3709 12.6344C17.5821 9.85759 15.0234 7.81787 11.9972 7.81787C8.34435 7.81787 5.37262 10.7897 5.37262 14.4425C5.37262 18.0953 8.34435 21.067 11.9972 21.067C15.0225 21.067 17.5806 19.0286 18.3703 16.253C18.464 16.2901 18.5658 16.3112 18.6727 16.3112C19.1277 16.3112 19.4965 15.9423 19.4965 15.4874V13.4004C19.4966 12.9454 19.1277 12.5766 18.6727 12.5766ZM11.9972 19.4194C9.25288 19.4194 7.02023 17.1868 7.02023 14.4425C7.02023 11.6982 9.25288 9.46548 11.9972 9.46548C14.7415 9.46548 16.9741 11.6981 16.9741 14.4425C16.9741 17.1868 14.7415 19.4194 11.9972 19.4194Z" fill="#6D6D6D"/>
</g>
<defs>
<linearGradient id="paint0_linear" x1="7.54575" y1="0.00012207" x2="7.54575" y2="15.0001" gradientUnits="userSpaceOnUse">
<stop stop-color="#A8CF45"/>
<stop offset="1" stop-color="#A8CF45" stop-opacity="0"/>
</linearGradient>
<clipPath id="clip0">
<rect width="24" height="24" fill="white" transform="translate(0 0.00012207)"/>
</clipPath>
</defs>
</svg>
