<svg width="24" height="24" viewBox="0 0 24 24" fill="none" xmlns="http://www.w3.org/2000/svg">
<g clip-path="url(#clip0)">
<path opacity="0.5" d="M4.55218 3.75012C4.24979 0.969129 5.21844 0.205469 8.59655 0.00012207C8.59655 0.00012207 9.34977 0.000124823 13.7965 0.00012207C18.2432 0.000119318 17.0318 5.25012 12.6409 7.50012C8.25 9.75012 8.59655 22.5001 8.59655 22.5001H4.55218V9.00012V3.75012Z" fill="url(#paint0_linear)"/>
<path d="M19.3594 16.5058C19.8772 16.5058 20.2969 16.0861 20.2969 15.5683V3.75012C20.2969 1.68237 18.6146 0.00012207 16.5469 0.00012207H7.45312C5.38538 0.00012207 3.70312 1.68237 3.70312 3.75012V20.2501C3.70312 22.3179 5.38538 24.0001 7.45312 24.0001H16.5469C18.6146 24.0001 20.2969 22.3179 20.2969 20.2501C20.2969 19.7323 19.8772 19.3126 19.3594 19.3126C18.8416 19.3126 18.4219 19.7323 18.4219 20.2501C18.4219 21.284 17.5807 22.1251 16.5469 22.1251H7.45312C6.41925 22.1251 5.57812 21.284 5.57812 20.2501V3.75012C5.57812 2.71625 6.41925 1.87512 7.45312 1.87512H16.5469C17.5807 1.87512 18.4219 2.71625 18.4219 3.75012V15.5683C18.4219 16.0861 18.8416 16.5058 19.3594 16.5058Z" fill="#6D6D6D"/>
<path d="M12 20.6777C12.5178 20.6777 12.9375 20.2579 12.9375 19.7402C12.9375 19.2224 12.5178 18.8027 12 18.8027C11.4822 18.8027 11.0625 19.2224 11.0625 19.7402C11.0625 20.2579 11.4822 20.6777 12 20.6777Z" fill="#6D6D6D"/>
<path d="M13.875 4.27142C13.875 3.75364 13.4553 3.33392 12.9375 3.33392H11.0625C10.5447 3.33392 10.125 3.75364 10.125 4.27142C10.125 4.7892 10.5447 5.20892 11.0625 5.20892H12.9375C13.4553 5.20892 13.875 4.78916 13.875 4.27142Z" fill="#6D6D6D"/>
</g>
<defs>
<linearGradient id="paint0_linear" x1="10.5458" y1="0.00012207" x2="10.5458" y2="22.5001" gradientUnits="userSpaceOnUse">
<stop stop-color="#A8CF45"/>
<stop offset="1" stop-color="#A8CF45" stop-opacity="0"/>
</linearGradient>
<clipPath id="clip0">
<rect width="24" height="24" fill="white" transform="translate(0 0.00012207)"/>
</clipPath>
</defs>
</svg>
