<svg width="16" height="16" viewBox="0 0 16 16" fill="none" xmlns="http://www.w3.org/2000/svg">
<path opacity="0.5" d="M1 4L4.5 1.5C4.5 1.5 7 1.5 8 4C9 6.5 7 5 5.5 7.5C4 10 8 15 8 15L1 7.5V4Z" fill="url(#paint0_linear)"/>
<path d="M14.7397 2.47418C13.9536 1.67815 12.8697 1.23975 11.6875 1.23975C9.62075 1.23975 8.55216 2.30318 8.01966 3.19528C8.01303 3.20634 8.00647 3.21743 8 3.2285C7.99353 3.21743 7.98697 3.20634 7.98034 3.19528C7.44784 2.30318 6.37925 1.23975 4.3125 1.23975C3.13034 1.23975 2.04641 1.67815 1.26031 2.47421C0.435813 3.30918 0 4.45215 0 5.77956C0 8.59825 2.50566 10.4671 4.71631 12.1159C5.81784 12.9375 6.85828 13.7135 7.51312 14.5271C7.63175 14.6745 7.81078 14.7602 8 14.7602C8.18922 14.7602 8.36825 14.6745 8.48691 14.5272C8.82372 14.1087 9.29191 13.6637 9.96041 13.1268C10.2295 12.9107 10.2724 12.5172 10.0563 12.2481C9.84016 11.9791 9.44675 11.9361 9.17762 12.1522C8.706 12.531 8.32025 12.8736 8.00028 13.1992C7.29378 12.479 6.39956 11.812 5.46366 11.114C3.39209 9.56887 1.25 7.97115 1.25 5.77956C1.25 3.84256 2.50934 2.48975 4.3125 2.48975C5.48497 2.48975 6.35072 2.93084 6.88562 3.80075C7.31031 4.49128 7.37637 5.21006 7.37681 5.2145C7.40188 5.54009 7.67331 5.79287 7.99984 5.79287C8.32644 5.79287 8.59784 5.54284 8.62291 5.21725C8.62356 5.21006 8.68962 4.49128 9.11431 3.80075C9.64928 2.93084 10.515 2.48975 11.6875 2.48975C13.4907 2.48975 14.75 3.84256 14.75 5.77956C14.75 7.59325 13.2734 8.99943 11.6777 10.2488C11.4059 10.4616 11.3581 10.8545 11.5709 11.1262C11.7836 11.398 12.1765 11.4458 12.4483 11.233C13.2073 10.6387 14.1694 9.83553 14.8771 8.89237C15.6327 7.8854 16 6.86718 16 5.77956C16 4.45215 15.5642 3.30918 14.7397 2.47418Z" fill="#A8CF45"/>
<defs>
<linearGradient id="paint0_linear" x1="4.63458" y1="1.5" x2="4.63458" y2="15" gradientUnits="userSpaceOnUse">
<stop stop-color="#A8CF45"/>
<stop offset="1" stop-color="#A8CF45" stop-opacity="0"/>
</linearGradient>
</defs>
</svg>
