<svg width="206" height="32" viewBox="0 0 206 32" fill="none" xmlns="http://www.w3.org/2000/svg">
<path fill-rule="evenodd" clip-rule="evenodd" d="M24.7288 22.3066C28.3263 15.3653 30.5379 11.0662 37.6732 5.10767C58.1407 -7.66954 62.2546 23.5868 47.7368 26.0837C40.7383 27.2873 32.382 22.487 27.2419 20.34C29.9123 21.6 37.8061 26.9448 46.3449 28.3357C66.2292 31.5748 66.705 1.03275 50.9805 0.0267081C47.7023 -0.182947 41.7365 0.831844 37.5752 3.42073C32.9157 6.3195 28.6416 10.4705 24.884 16.1527L24.7288 22.3066Z" fill="#78B347"/>
<path fill-rule="evenodd" clip-rule="evenodd" d="M46.5621 28.3658C47.3533 28.4851 48.114 28.5523 48.8434 28.5684C48.9668 28.5695 49.0919 28.5728 49.2137 28.5719C49.3349 28.5718 49.4547 28.5695 49.5742 28.5665C49.7335 28.5631 49.8894 28.5553 50.0461 28.5486C66.2184 27.6464 65.6613 0.965752 50.9805 0.026609C50.3438 -0.0140965 49.6055 -0.00840643 48.7992 0.0457946C65.621 1.39425 63.1745 29.136 46.5621 28.3658Z" fill="#A8CF45"/>
<path fill-rule="evenodd" clip-rule="evenodd" d="M40.1881 3.22504L37.4556 3.49568C29.9552 8.98187 23.1699 20.2396 22.3912 22.4893C18.5463 17.7229 13.7329 15.52 9.33673 14.7353C17.1799 18.0703 21.356 26.1505 22.6193 32.0002C23.7754 24.6072 28.8732 10.8971 40.1881 3.22504Z" fill="url(#paint0_linear)"/>
<path fill-rule="evenodd" clip-rule="evenodd" d="M22.3912 22.4892C23.1699 20.2396 29.9552 8.9818 37.4556 3.49561C32.5626 5.99542 23.6296 14.1078 21.6016 17.8322C20.2718 16.7385 15.2998 13.9479 9.33673 14.7353C13.7329 15.5199 18.5463 17.7228 22.3912 22.4892Z" fill="#78B347"/>
<path fill-rule="evenodd" clip-rule="evenodd" d="M17.0716 14.8078C6.37273 7.16615 0.097493 13.0212 0.00113571 17.3646C-0.101699 21.999 6.78836 26.7143 16.8395 20.8271L16.5312 20.4207C10.2849 23.0599 4.2199 22.3448 4.19595 17.1397C4.17201 11.9346 10.0736 12.249 17.0716 14.8078Z" fill="#78B347"/>
<path fill-rule="evenodd" clip-rule="evenodd" d="M12.9496 21.5711C8.15379 22.6112 4.21485 21.3324 4.19564 17.1398C4.17636 12.9502 7.99652 12.337 13.1369 13.5915C7.69209 10.8887 2.88157 12.9827 3.11824 17.5135C3.34327 21.8225 8.45749 23.8046 12.9496 21.5711Z" fill="#A8CF45"/>
<path fill-rule="evenodd" clip-rule="evenodd" d="M20.6089 6.54297C22.4078 6.54297 23.866 8.00494 23.866 9.80809C23.866 11.6112 22.4078 13.0728 20.6089 13.0728C18.8099 13.0728 17.3517 11.6112 17.3517 9.80809C17.3517 8.00494 18.8099 6.54297 20.6089 6.54297Z" fill="#78B347"/>
<path fill-rule="evenodd" clip-rule="evenodd" d="M22.9116 12.1166C21.6396 13.3917 19.5773 13.3917 18.3052 12.1166C18.0734 11.8843 17.8841 11.6255 17.7368 11.3501C20.7623 14.4677 25.3143 10.034 21.9097 6.81409C22.2735 6.97282 22.6141 7.20115 22.9116 7.49937C24.1837 8.77437 24.1837 10.8416 22.9116 12.1166Z" fill="#A8CF45"/>
<path fill-rule="evenodd" clip-rule="evenodd" d="M70.9983 4.9119V18.9214C70.9983 19.3461 70.9236 19.6998 70.7746 19.9829C70.6256 20.2661 70.4415 20.431 70.2217 20.4782H76.8338C76.6455 20.4782 76.4572 20.3366 76.2689 20.0535C76.1277 19.7708 76.0573 19.3933 76.0573 18.9214V4.9119C76.0573 4.51878 76.1277 4.17286 76.2689 3.87413C76.4102 3.57541 76.5984 3.4023 76.8338 3.3551H70.2217C70.41 3.3551 70.5867 3.51223 70.7513 3.82694C70.9158 4.14127 70.9983 4.50317 70.9983 4.9119ZM80.7633 5.9024V11.7279C80.7633 12.4357 81.0065 13.0332 81.4929 13.5206C81.9792 14.0081 82.583 14.2518 83.3047 14.2518H91.6341C91.9481 14.2518 92.2224 14.3618 92.4577 14.5818C92.6932 14.8021 92.8106 15.077 92.8106 15.4073L92.7873 16.9641C92.7873 17.294 92.6733 17.5733 92.4461 17.8014C92.2185 18.0291 91.9481 18.1434 91.6341 18.1434H82.2928C82.0103 18.1434 81.6652 18.0253 81.2574 17.7893C81.1322 17.7265 80.9594 17.5849 80.74 17.365L81.5161 20.4782H95.3286C96.0344 20.4782 96.6304 20.2345 97.1168 19.747C97.6031 19.2596 97.8462 18.6621 97.8462 17.9546V11.7279C97.8462 11.0361 97.6069 10.4387 97.1284 9.9356C96.6498 9.43247 96.0499 9.18094 95.3286 9.18094H86.9751C86.6459 9.18094 86.3713 9.07057 86.1519 8.85063C85.932 8.63033 85.8223 8.35538 85.8223 8.02507V6.84578C85.8223 6.51547 85.932 6.24052 86.1519 6.02022C86.3713 5.80027 86.6459 5.69027 86.9751 5.69027H96.3168C96.5989 5.69027 96.944 5.80808 97.3522 6.044C97.4774 6.10673 97.6502 6.24833 97.8696 6.46827L97.093 3.3551H83.3047C82.6145 3.3551 82.0185 3.60663 81.5161 4.11005C81.0143 4.61318 80.7633 5.21063 80.7633 5.9024ZM107.588 13.0725H114.576V18.9214C114.576 19.3461 114.502 19.6998 114.353 19.9829C114.204 20.2661 114.019 20.431 113.799 20.4782H120.388C120.231 20.4782 120.051 20.3288 119.847 20.0301C119.69 19.6687 119.612 19.299 119.612 18.9214V4.9119C119.612 4.53439 119.682 4.16505 119.823 3.80315C119.964 3.55163 120.153 3.4023 120.388 3.3551H113.799C113.988 3.3551 114.164 3.51223 114.329 3.82694C114.494 4.14127 114.576 4.50317 114.576 4.9119V10.7374H107.588V4.9119C107.588 4.51878 107.658 4.17286 107.799 3.87413C107.94 3.57541 108.129 3.4023 108.364 3.3551H101.752C101.94 3.3551 102.117 3.51223 102.282 3.82694C102.446 4.14127 102.529 4.50317 102.529 4.9119V18.9214C102.529 19.3461 102.454 19.6998 102.305 19.9829C102.156 20.2661 101.972 20.431 101.752 20.4782H108.364C108.176 20.4782 107.987 20.3366 107.799 20.0535C107.658 19.7708 107.588 19.3933 107.588 18.9214V13.0725ZM126.718 20.4782H139.518C140.224 20.4782 140.82 20.2345 141.306 19.747C141.793 19.2596 142.036 18.6621 142.036 17.9546V5.9024C142.036 5.21063 141.797 4.61318 141.318 4.11005C140.839 3.60663 140.24 3.3551 139.518 3.3551H126.718C126.027 3.3551 125.431 3.60663 124.929 4.11005C124.427 4.61318 124.176 5.21063 124.176 5.9024V17.9546C124.176 18.6621 124.42 19.2596 124.906 19.747C125.392 20.2345 125.996 20.4782 126.718 20.4782ZM130.388 5.69027H135.824C136.138 5.69027 136.412 5.80027 136.647 6.02022C136.883 6.24052 137 6.51547 137 6.84578V16.9641C137 17.2313 136.879 17.4945 136.636 17.7543C136.393 18.0136 136.122 18.1434 135.824 18.1434H130.388C130.059 18.1434 129.784 18.0331 129.565 17.8131C129.345 17.5927 129.235 17.3101 129.235 16.9641V6.84578C129.235 6.51547 129.345 6.24052 129.565 6.02022C129.784 5.80027 130.059 5.69027 130.388 5.69027ZM163.895 3.3551H160.012C160.201 3.3551 160.377 3.51223 160.542 3.82694C160.706 4.14127 160.789 4.50317 160.789 4.9119V16.5866L151.848 3.3551H145.259C145.447 3.3551 145.624 3.51223 145.789 3.82694C145.953 4.14127 146.036 4.50317 146.036 4.9119V18.9214C146.036 19.3461 145.961 19.6998 145.812 19.9829C145.663 20.2661 145.479 20.431 145.259 20.4782H149.142C148.953 20.4782 148.765 20.3366 148.577 20.0535C148.436 19.7708 148.365 19.3933 148.365 18.9214V7.2467L157.283 20.4782H163.118V4.9119C163.118 4.51878 163.189 4.17286 163.33 3.87413C163.471 3.57541 163.659 3.4023 163.895 3.3551ZM181.096 3.3551H169.66C168.97 3.3551 168.374 3.60663 167.871 4.11005C167.37 4.61318 167.119 5.21063 167.119 5.9024V17.9546C167.119 18.6621 167.362 19.2596 167.848 19.747C168.334 20.2345 168.938 20.4782 169.66 20.4782H181.119L181.896 17.365L181.449 17.7421C181.056 18.0097 180.687 18.1434 180.342 18.1434H173.33C173.001 18.1434 172.727 18.0331 172.507 17.8131C172.287 17.5927 172.178 17.3101 172.178 16.9641V6.84578C172.178 6.51547 172.287 6.24052 172.507 6.02022C172.727 5.80027 173.001 5.69027 173.33 5.69027H180.319C180.57 5.69027 180.852 5.76869 181.166 5.92582C181.511 6.06741 181.747 6.24833 181.872 6.46827L181.096 3.3551ZM191.472 13.0725H198.461V18.9214C198.461 19.3461 198.386 19.6998 198.237 19.9829C198.088 20.2661 197.904 20.431 197.684 20.4782H204.273C204.116 20.4782 203.935 20.3288 203.732 20.0301C203.574 19.6687 203.496 19.299 203.496 18.9214V4.9119C203.496 4.53439 203.567 4.16505 203.708 3.80315C203.849 3.55163 204.037 3.4023 204.273 3.3551H197.684C197.872 3.3551 198.049 3.51223 198.214 3.82694C198.379 4.14127 198.461 4.50317 198.461 4.9119V10.7374H191.472V4.9119C191.472 4.51878 191.543 4.17286 191.684 3.87413C191.825 3.57541 192.013 3.4023 192.249 3.3551H185.637C185.825 3.3551 186.002 3.51223 186.166 3.82694C186.331 4.14127 186.413 4.50317 186.413 4.9119V18.9214C186.413 19.3461 186.339 19.6998 186.19 19.9829C186.041 20.2661 185.857 20.431 185.637 20.4782H192.249C192.061 20.4782 191.872 20.3366 191.684 20.0535C191.543 19.7708 191.472 19.3933 191.472 18.9214V13.0725Z" fill="#78B347"/>
<path fill-rule="evenodd" clip-rule="evenodd" d="M201.717 24.7449H72.7786C70.7898 24.7449 69.1619 26.3762 69.1619 28.3702V28.3709C69.1619 30.3649 70.7898 31.9958 72.7786 31.9958H201.717C203.706 31.9958 205.333 30.3649 205.333 28.3709V28.3702C205.333 26.3762 203.706 24.7449 201.717 24.7449Z" fill="#ED3237"/>
<path d="M104.161 30.774V31.0166H101.684V30.774H101.755C101.859 30.774 101.912 30.7122 101.912 30.5886C101.912 30.541 101.899 30.4887 101.873 30.4316C101.846 30.3746 101.829 30.3341 101.819 30.3104L100.901 28.5413H100.851V30.1178C100.851 30.3508 100.874 30.5184 100.919 30.6207C100.964 30.7229 101.053 30.774 101.186 30.774H101.3V31.0166H98.6879V30.774H98.8017C98.925 30.774 99.0116 30.7217 99.0615 30.6171C99.1113 30.5125 99.1362 30.346 99.1362 30.1178V26.6224C99.1362 26.3751 99.1101 26.2039 99.0579 26.1087C99.0057 26.0137 98.9179 25.9661 98.7945 25.9661H98.6879V25.7236H101.3V25.9661H101.179C101.051 25.9661 100.964 26.0232 100.919 26.1373C100.874 26.2514 100.851 26.4131 100.851 26.6224V28.0633H100.901L101.705 27.2216C101.905 27.0123 102.045 26.8399 102.125 26.7044C102.206 26.5688 102.246 26.4488 102.246 26.3442C102.246 26.0921 102.08 25.9661 101.748 25.9661V25.7236H103.883V25.9661C103.741 25.9661 103.595 26.0101 103.445 26.0981C103.296 26.186 103.107 26.3489 102.88 26.5867L102.04 27.4641L103.506 29.9822C103.677 30.2723 103.781 30.4411 103.819 30.4886C103.919 30.6076 104.032 30.7027 104.161 30.774ZM111.039 30.774V31.0166H109.174L107.851 28.5913H107.822V30.1178C107.822 30.327 107.845 30.4887 107.89 30.6028C107.935 30.717 108.021 30.774 108.15 30.774H108.271V31.0166H105.659V30.774H105.773C105.896 30.774 105.982 30.7217 106.032 30.6171C106.082 30.5125 106.107 30.346 106.107 30.1178V26.6224C106.107 26.3894 106.084 26.2217 106.039 26.1195C105.994 26.0172 105.905 25.9661 105.773 25.9661H105.659V25.7236H108.747C109.506 25.7236 110.043 25.9043 110.356 26.2656C110.55 26.4892 110.647 26.7626 110.647 27.086C110.647 27.3904 110.557 27.6544 110.377 27.8779C110.168 28.1394 109.865 28.3082 109.466 28.3844L110.64 30.4388C110.697 30.5291 110.755 30.6041 110.815 30.6634C110.874 30.7229 110.949 30.7597 111.039 30.774ZM108.954 27.1146C108.954 26.8435 108.883 26.6343 108.74 26.4868C108.555 26.2966 108.249 26.2015 107.822 26.2015V28.1133H107.9C108.152 28.1133 108.361 28.0657 108.527 27.9705C108.811 27.8041 108.954 27.5188 108.954 27.1146ZM116.629 29.5043L116.914 29.6041L116.572 31.0166H112.487V30.774H112.63C112.762 30.774 112.847 30.7087 112.882 30.5779C112.918 30.4471 112.936 30.2937 112.936 30.1178V26.6224C112.936 26.3608 112.909 26.186 112.857 26.0981C112.805 26.0101 112.729 25.9661 112.63 25.9661H112.487V25.7236H116.501L116.572 27.1645H116.309C116.261 26.8031 116.081 26.5391 115.768 26.3727C115.545 26.2586 115.286 26.2015 114.992 26.2015H114.651V28.0705C114.916 28.0705 115.106 27.9931 115.22 27.8386C115.334 27.6841 115.391 27.4617 115.391 27.1717H115.668V29.4472H115.391C115.391 29.1713 115.335 28.9526 115.224 28.7909C115.112 28.6292 114.921 28.5484 114.651 28.5484V30.0821C114.651 30.2533 114.678 30.3781 114.733 30.4566C114.787 30.535 114.895 30.5743 115.056 30.5743C115.398 30.5743 115.713 30.4839 116.003 30.3032C116.311 30.1082 116.52 29.8419 116.629 29.5043ZM124.29 28.2774C124.29 29.0382 124.055 29.6683 123.586 30.1677C123.05 30.7336 122.302 31.0166 121.344 31.0166H118.561V30.774H118.675C118.784 30.774 118.867 30.7348 118.924 30.6564C118.981 30.5779 119.01 30.3983 119.01 30.1178V26.6224C119.01 26.3988 118.993 26.2443 118.96 26.1587C118.912 26.0303 118.817 25.9661 118.675 25.9661H118.561V25.7236H121.23C121.406 25.7236 121.574 25.7307 121.735 25.7449C121.897 25.7592 122.051 25.783 122.198 25.8163C122.767 25.9352 123.227 26.1563 123.579 26.4797C124.053 26.9125 124.29 27.5117 124.29 28.2774ZM122.369 28.3629C122.369 27.5545 122.205 26.9767 121.878 26.6295C121.612 26.3442 121.228 26.2015 120.725 26.2015V30.1249C120.725 30.4245 120.853 30.5743 121.109 30.5743C121.441 30.5743 121.716 30.4245 121.935 30.1249C122.224 29.7349 122.369 29.1476 122.369 28.3629ZM128.699 30.774V31.0166H126.087V30.774H126.208C126.317 30.774 126.399 30.7313 126.454 30.6456C126.508 30.5601 126.536 30.384 126.536 30.1178V26.6224C126.536 26.4084 126.521 26.2586 126.493 26.173C126.441 26.0351 126.346 25.9661 126.208 25.9661H126.087V25.7236H128.699V25.9661H128.592C128.431 25.9661 128.334 26.0291 128.3 26.1551C128.267 26.2812 128.251 26.4369 128.251 26.6224V30.1178C128.251 30.3413 128.271 30.5065 128.311 30.6135C128.351 30.7206 128.445 30.774 128.592 30.774H128.699ZM135.086 25.7236L135.15 27.2216H134.873C134.821 26.9267 134.695 26.689 134.496 26.5083C134.277 26.3037 133.997 26.2015 133.656 26.2015H133.556V30.1178C133.556 30.3651 133.579 30.5362 133.624 30.6314C133.669 30.7265 133.77 30.774 133.926 30.774H134.104V31.0166H131.293V30.774H131.492C131.611 30.774 131.699 30.7348 131.756 30.6564C131.813 30.5779 131.841 30.3983 131.841 30.1178V26.2015H131.741C131.405 26.2015 131.127 26.3037 130.909 26.5083C130.7 26.6937 130.572 26.9314 130.524 27.2216H130.247L130.311 25.7236H135.086ZM147.555 29.4187C147.555 30.0417 147.31 30.5054 146.822 30.8097C146.456 31.0427 146.008 31.1593 145.477 31.1593C145.121 31.1593 144.751 31.0927 144.367 30.9595C144.257 30.9215 144.15 30.8846 144.043 30.8489C143.936 30.8133 143.852 30.7955 143.79 30.7955C143.695 30.7955 143.62 30.8276 143.566 30.8918C143.511 30.9559 143.489 31.0308 143.498 31.1164H143.214V29.119H143.498C143.588 29.5566 143.84 29.9394 144.253 30.2675C144.637 30.5672 145.026 30.717 145.42 30.717C145.643 30.717 145.828 30.6551 145.975 30.5315C146.122 30.4079 146.196 30.2271 146.196 29.9893C146.196 29.7658 146.089 29.5899 145.875 29.4615C145.795 29.414 145.652 29.3474 145.448 29.2617C145.244 29.1761 145.027 29.0882 144.797 28.9978C144.567 28.9074 144.35 28.8171 144.146 28.7267C143.942 28.6364 143.8 28.5579 143.719 28.4913C143.335 28.187 143.142 27.778 143.142 27.2644C143.142 27.0076 143.193 26.7757 143.295 26.5688C143.397 26.362 143.543 26.1849 143.733 26.0374C143.923 25.89 144.153 25.777 144.423 25.6985C144.694 25.6201 144.995 25.5809 145.327 25.5809C145.626 25.5809 145.918 25.6403 146.203 25.7592C146.34 25.8163 146.442 25.8579 146.509 25.884C146.575 25.9102 146.632 25.9233 146.68 25.9233C146.746 25.9233 146.803 25.9043 146.85 25.8662C146.898 25.8282 146.921 25.7711 146.921 25.695V25.6237H147.199V27.4499H146.921C146.86 27.1075 146.736 26.8174 146.551 26.5795C146.281 26.2372 145.911 26.066 145.441 26.066C145.223 26.066 145.034 26.1123 144.875 26.2051C144.716 26.2977 144.637 26.4345 144.637 26.6153C144.637 26.7532 144.687 26.8804 144.786 26.9969C144.886 27.1134 145.036 27.2121 145.235 27.2929C145.415 27.369 145.598 27.4356 145.783 27.4926C145.968 27.5498 146.15 27.6163 146.331 27.6924C146.502 27.7637 146.656 27.8481 146.793 27.9456C146.931 28.0431 147.047 28.1466 147.142 28.2559C147.417 28.5651 147.555 28.9526 147.555 29.4187ZM154.433 30.774V31.0166H152.042V30.774C152.113 30.7836 152.175 30.7705 152.227 30.7348C152.279 30.6992 152.305 30.6362 152.305 30.5458C152.305 30.5172 152.303 30.4863 152.298 30.4531C152.293 30.4197 152.277 30.3627 152.248 30.2818L151.928 29.3259H150.633L150.483 29.7682C150.45 29.8633 150.425 29.9489 150.409 30.0251C150.392 30.1011 150.384 30.182 150.384 30.2675C150.384 30.415 150.424 30.5362 150.505 30.6314C150.585 30.7265 150.687 30.774 150.811 30.774V31.0166H149.053V30.774C149.247 30.755 149.402 30.6599 149.516 30.4886C149.629 30.3175 149.731 30.1058 149.822 29.8538L151.387 25.5809H152.369L154.028 30.3032C154.084 30.4649 154.144 30.579 154.205 30.6456C154.267 30.7122 154.343 30.755 154.433 30.774ZM150.797 28.848H151.772L151.288 27.3857L150.797 28.848ZM160.813 25.7236V25.9661C160.709 25.9898 160.609 26.0684 160.514 26.2015C160.42 26.3347 160.329 26.5106 160.244 26.7294L158.557 31.1593H157.589L155.938 26.6795C155.839 26.4131 155.755 26.2325 155.686 26.1373C155.617 26.0422 155.533 25.9851 155.433 25.9661V25.7236H157.924V25.9661C157.848 25.9661 157.784 25.9898 157.732 26.0374C157.68 26.0849 157.653 26.1539 157.653 26.2443C157.653 26.3014 157.658 26.3477 157.668 26.3834C157.677 26.4191 157.706 26.5035 157.753 26.6367L158.664 29.2261H158.693L159.468 27.0932C159.506 26.9837 159.538 26.872 159.564 26.7579C159.59 26.6437 159.603 26.532 159.603 26.4226C159.603 26.2705 159.554 26.1563 159.454 26.0802C159.354 26.0041 159.238 25.9661 159.105 25.9661V25.7236H160.813ZM167.941 28.2774C167.941 29.0382 167.706 29.6683 167.236 30.1677C166.7 30.7336 165.953 31.0166 164.994 31.0166H162.212V30.774H162.326C162.435 30.774 162.518 30.7348 162.575 30.6564C162.632 30.5779 162.66 30.3983 162.66 30.1178V26.6224C162.66 26.3988 162.644 26.2443 162.61 26.1587C162.563 26.0303 162.468 25.9661 162.326 25.9661H162.212V25.7236H164.881C165.056 25.7236 165.225 25.7307 165.386 25.7449C165.547 25.7592 165.701 25.783 165.848 25.8163C166.418 25.9352 166.878 26.1563 167.229 26.4797C167.703 26.9125 167.941 27.5117 167.941 28.2774ZM166.019 28.3629C166.019 27.5545 165.856 26.9767 165.528 26.6295C165.262 26.3442 164.878 26.2015 164.375 26.2015V30.1249C164.375 30.4245 164.503 30.5743 164.76 30.5743C165.092 30.5743 165.367 30.4245 165.585 30.1249C165.875 29.7349 166.019 29.1476 166.019 28.3629ZM175.808 28.3701C175.808 29.1309 175.571 29.7658 175.097 30.2747C174.551 30.8644 173.785 31.1593 172.798 31.1593C171.816 31.1593 171.052 30.8644 170.506 30.2747C170.027 29.7516 169.788 29.1167 169.788 28.3701C169.788 27.6187 170.027 26.9838 170.506 26.4654C171.052 25.8757 171.816 25.5809 172.798 25.5809C173.78 25.5809 174.546 25.8733 175.097 26.4583C175.571 26.9624 175.808 27.5997 175.808 28.3701ZM173.887 28.3701C173.887 27.7756 173.816 27.2787 173.673 26.8791C173.479 26.3371 173.187 26.066 172.798 26.066C172.414 26.066 172.124 26.3347 171.93 26.872C171.783 27.281 171.709 27.7804 171.709 28.3701C171.709 28.9645 171.78 29.4615 171.923 29.861C172.117 30.4031 172.409 30.6742 172.798 30.6742C173.182 30.6742 173.472 30.4055 173.666 29.8681C173.813 29.4591 173.887 28.9597 173.887 28.3701Z" fill="#FEFEFE"/>
<path d="M137.631 29.0688V28.2176H140.256V29.0688H137.631Z" fill="#FEFEFE"/>
<defs>
<linearGradient id="paint0_linear" x1="31.2982" y1="10.62" x2="37.4719" y2="3.51013" gradientUnits="userSpaceOnUse">
<stop stop-color="#A8CF45"/>
<stop offset="1" stop-color="#78B347"/>
</linearGradient>
</defs>
</svg>
