<svg width="16" height="16" viewBox="0 0 16 16" fill="none" xmlns="http://www.w3.org/2000/svg">
<path opacity="0.5" d="M11.4998 7C11.4998 9.20914 8.4998 4.5 5.4998 7.5C2.9998 10.5 0.999798 9.5 1.9998 6C3.4998 3 3.79066 2 5.9998 2C15.4998 4.5 11.4998 4.79086 11.4998 7Z" fill="url(#paint0_linear)"/>
<path d="M15.3612 12.1011H10.8993L12.7211 6.28559L13.9619 10.2608C14.0452 10.5278 14.2915 10.6989 14.5572 10.6989C14.6187 10.6989 14.6814 10.6898 14.7432 10.6704C15.0721 10.5678 15.2555 10.2179 15.1529 9.88904L13.3129 3.9938C13.2471 3.78308 13.0748 3.62276 12.8599 3.57233L9.86129 2.86845C9.72457 2.22982 9.26107 1.71091 8.65495 1.49601V0.623815C8.65495 0.279282 8.37566 0 8.03113 0C7.6866 0 7.40728 0.279282 7.40728 0.623846V1.4961C7.07413 1.61423 6.78403 1.82419 6.56766 2.09541L3.42511 1.35776C3.10627 1.28301 2.78405 1.46722 2.68686 1.77985L0.0722234 10.1875C0.0353795 10.2671 0.014817 10.3558 0.014817 10.4492C0.014817 10.4503 0.014817 10.4514 0.014817 10.4525C0.0145357 10.4649 0.0145982 10.4772 0.015067 10.4895C0.0367233 12.277 1.49748 13.7244 3.28995 13.7244C5.09587 13.7244 6.56509 12.2551 6.56509 10.4492C6.56509 10.3618 6.54709 10.2786 6.51462 10.203L4.20227 2.82176L6.15972 3.28123C6.17075 4.30377 7.006 5.13218 8.0311 5.13218C8.75682 5.13218 9.38735 4.71699 9.69767 4.11167L11.9305 4.63577L9.47817 12.4637C9.46764 12.4973 9.46007 12.5312 9.45539 12.565C9.44188 12.616 9.4347 12.6696 9.4347 12.7249C9.4347 14.5308 10.9039 16 12.7098 16C14.5157 16 15.985 14.5308 15.985 12.7249C15.985 12.3804 15.7057 12.1011 15.3612 12.1011ZM3.28999 12.4767C2.38958 12.4767 1.62442 11.8868 1.3607 11.0731H5.21924C4.95559 11.8868 4.19043 12.4767 3.28999 12.4767ZM5.08887 9.82541H1.49145L3.28355 4.06261L5.08887 9.82541ZM8.03113 3.88452C7.68716 3.88452 7.40728 3.60467 7.40728 3.26067C7.40728 2.9167 7.68713 2.63682 8.03113 2.63682C8.3751 2.63682 8.65498 2.91667 8.65498 3.26067C8.65495 3.60467 8.3751 3.88452 8.03113 3.88452ZM12.7099 14.7524C11.8095 14.7524 11.0443 14.1625 10.7806 13.3488H14.6392C14.3755 14.1625 13.6103 14.7524 12.7099 14.7524Z" fill="#A8CF45"/>
<defs>
<linearGradient id="paint0_linear" x1="7.03627" y1="2" x2="7.03627" y2="9.27635" gradientUnits="userSpaceOnUse">
<stop stop-color="#A8CF45"/>
<stop offset="1" stop-color="#A8CF45" stop-opacity="0"/>
</linearGradient>
</defs>
</svg>
