<svg width="16" height="16" viewBox="0 0 16 16" fill="none" xmlns="http://www.w3.org/2000/svg">
<path d="M-4.12526e-07 6.56262C-2.54354e-07 10.1812 2.94394 13.1251 6.5625 13.1251C8.1545 13.1251 9.61591 12.5553 10.7535 11.6089L14.9316 15.8156C15.1748 16.0605 15.5705 16.0618 15.8154 15.8186C15.9384 15.6964 16 15.5358 16 15.3751C16 15.2159 15.9395 15.0566 15.8184 14.9347L11.6347 10.7223C12.5656 9.58924 13.125 8.14002 13.125 6.56262C13.125 5.43681 12.8349 4.32587 12.2861 3.34999C12.1169 3.04912 11.7358 2.9424 11.4349 3.11162C11.1341 3.28081 11.0273 3.66187 11.1966 3.96274C11.6404 4.75193 11.875 5.65096 11.875 6.56262C11.875 9.49193 9.49181 11.8751 6.5625 11.8751C3.63319 11.8751 1.25 9.49193 1.25 6.56262C1.25 3.63331 3.63319 1.25012 6.5625 1.25012C7.48534 1.25012 8.39403 1.49021 9.19034 1.9444C9.49019 2.11543 9.87187 2.01099 10.0429 1.71118C10.2139 1.41134 10.1095 1.02965 9.80969 0.858617C8.825 0.296993 7.70216 0.000117919 6.5625 0.000117969C2.94394 0.000118127 -5.70699e-07 2.94406 -4.12526e-07 6.56262Z" fill="#6D6D6D"/>
</svg>
