<svg width="17" height="16" viewBox="0 0 17 16" fill="none" xmlns="http://www.w3.org/2000/svg">
<path d="M8.49996 0.5C5.32496 0.5 2.62496 2.475 1.52496 5.25H15.475C14.375 2.475 11.675 0.5 8.49996 0.5Z" fill="#42ADE2"/>
<path d="M8.49996 15.5C11.675 15.5 14.375 13.525 15.475 10.75H1.52496C2.62496 13.525 5.32496 15.5 8.49996 15.5Z" fill="#83BF4F"/>
<path d="M16 8C16 7.225 15.875 6.45 15.65 5.75H1.35C1.125 6.45 1 7.225 1 8C1 8.775 1.125 9.55 1.35 10.25H15.65C15.875 9.55 16 8.775 16 8Z" fill="white"/>
<path d="M15.475 5.25C15.5 5.325 15.55 5.425 15.575 5.5C15.6 5.575 15.625 5.675 15.65 5.75" fill="#C94747"/>
<path d="M15.575 5.5C15.55 5.425 15.5 5.325 15.475 5.25H1.52504C1.50004 5.325 1.45004 5.425 1.42504 5.5C1.40004 5.575 1.37504 5.675 1.35004 5.75H15.65C15.625 5.675 15.6 5.575 15.575 5.5Z" fill="#C94747"/>
<path d="M1.42504 10.5C1.45004 10.575 1.50004 10.675 1.52504 10.75H15.475C15.5 10.675 15.55 10.575 15.575 10.5C15.6 10.425 15.625 10.325 15.65 10.25H1.35004C1.37504 10.325 1.40004 10.425 1.42504 10.5Z" fill="#C94747"/>
<path d="M5.6 4.325C5 4.325 4.525 3.85 4.525 3.25C4.525 2.65 5 2.175 5.6 2.175C5.75 2.175 5.875 2.2 6 2.25C5.8 2.1 5.525 2 5.25 2C4.55 2 4 2.55 4 3.25C4 3.95 4.55 4.5 5.25 4.5C5.525 4.5 5.8 4.4 6 4.25C5.875 4.3 5.75 4.325 5.6 4.325Z" fill="white"/>
<path d="M6.67507 3.80005L6.77507 4.07505H7.05007L6.82507 4.22505L6.90007 4.50005L6.67507 4.32505L6.45007 4.50005L6.55007 4.22505L6.32507 4.07505H6.60007L6.67507 3.80005Z" fill="white"/>
<path d="M7.75 3.80005L7.825 4.07505H8.125L7.9 4.22505L7.975 4.50005L7.75 4.32505L7.525 4.50005L7.6 4.22505L7.375 4.07505H7.65L7.75 3.80005Z" fill="white"/>
<path d="M8.82507 3.80005L8.90007 4.07505H9.17507L8.95007 4.22505L9.05007 4.50005L8.82507 4.32505L8.57507 4.50005L8.67507 4.22505L8.45007 4.07505H8.72507L8.82507 3.80005Z" fill="white"/>
<path d="M9.875 3.80005L9.975 4.07505H10.25L10.025 4.22505L10.1 4.50005L9.875 4.32505L9.65 4.50005L9.725 4.22505L9.5 4.07505H9.8L9.875 3.80005Z" fill="white"/>
<path d="M10.9501 3.80005L11.0251 4.07505H11.3251L11.0751 4.22505L11.1751 4.50005L10.9501 4.32505L10.7251 4.50005L10.8001 4.22505L10.5751 4.07505H10.8501L10.9501 3.80005Z" fill="white"/>
<path d="M7.75 2.89996L7.825 3.17496H8.125L7.9 3.32496L7.975 3.59996L7.75 3.42496L7.525 3.59996L7.6 3.32496L7.375 3.17496H7.65L7.75 2.89996Z" fill="white"/>
<path d="M8.82507 2.89996L8.90007 3.17496H9.17507L8.95007 3.32496L9.05007 3.59996L8.82507 3.42496L8.57507 3.59996L8.67507 3.32496L8.45007 3.17496H8.72507L8.82507 2.89996Z" fill="white"/>
<path d="M9.875 2.89996L9.975 3.17496H10.25L10.025 3.32496L10.1 3.59996L9.875 3.42496L9.65 3.59996L9.725 3.32496L9.5 3.17496H9.8L9.875 2.89996Z" fill="white"/>
<path d="M10.9501 2.89996L11.0251 3.17496H11.3251L11.0751 3.32496L11.1751 3.59996L10.9501 3.42496L10.7251 3.59996L10.8001 3.32496L10.5751 3.17496H10.8501L10.9501 2.89996Z" fill="white"/>
<path d="M8.82507 2L8.90007 2.275H9.17507L8.95007 2.425L9.05007 2.7L8.82507 2.525L8.57507 2.7L8.67507 2.425L8.45007 2.275H8.72507L8.82507 2Z" fill="white"/>
<path d="M9.875 2L9.975 2.275H10.25L10.025 2.425L10.1 2.7L9.875 2.525L9.65 2.7L9.725 2.425L9.5 2.275H9.8L9.875 2Z" fill="white"/>
<path d="M10.9501 2L11.0251 2.275H11.3251L11.0751 2.425L11.1751 2.7L10.9501 2.525L10.7251 2.7L10.8001 2.425L10.5751 2.275H10.8501L10.9501 2Z" fill="white"/>
</svg>
