<svg width="24" height="24" viewBox="0 0 24 24" fill="none" xmlns="http://www.w3.org/2000/svg">
<path opacity="0.5" d="M1.5 6L6.75 2.25C6.75 2.25 10.5 2.25 12 6C13.5 9.75 10.5 7.5 8.25 11.25C6 15 12 22.5 12 22.5L1.5 11.25V6Z" fill="url(#paint0_linear)"/>
<path d="M22.1095 3.71128C20.9304 2.51723 19.3045 1.85962 17.5312 1.85962C14.4311 1.85962 12.8282 3.45478 12.0295 4.79292C12.0195 4.80951 12.0097 4.82615 12 4.84274C11.9903 4.82615 11.9805 4.80951 11.9705 4.79292C11.1718 3.45478 9.56888 1.85962 6.46875 1.85962C4.69552 1.85962 3.06961 2.51723 1.89047 3.71132C0.653719 4.96378 0 6.67823 0 8.66934C0 12.8974 3.75848 15.7006 7.07447 18.1739C8.72677 19.4062 10.2874 20.5703 11.2697 21.7907C11.4476 22.0118 11.7162 22.1404 12 22.1404C12.2838 22.1404 12.5524 22.0118 12.7304 21.7908C13.2356 21.163 13.9379 20.4956 14.9406 19.6902C15.3442 19.366 15.4087 18.7759 15.0844 18.3722C14.7602 17.9686 14.1701 17.9041 13.7664 18.2283C13.059 18.7965 12.4804 19.3104 12.0004 19.7988C10.9407 18.7184 9.59934 17.718 8.19548 16.6709C5.08814 14.3533 1.875 11.9567 1.875 8.66934C1.875 5.76384 3.76402 3.73462 6.46875 3.73462C8.22745 3.73462 9.52608 4.39626 10.3284 5.70112C10.9655 6.73692 11.0646 7.81509 11.0652 7.82174C11.1028 8.31013 11.51 8.68931 11.9998 8.68931C12.4897 8.68931 12.8968 8.31426 12.9344 7.82587C12.9353 7.81509 13.0344 6.73692 13.6715 5.70112C14.4739 4.39626 15.7725 3.73462 17.5312 3.73462C20.236 3.73462 22.125 5.76384 22.125 8.66934C22.125 11.3899 19.9101 13.4992 17.5165 15.3733C17.1089 15.6924 17.0371 16.2817 17.3563 16.6894C17.6754 17.097 18.2647 17.1688 18.6724 16.8495C19.811 15.958 21.2542 14.7533 22.3157 13.3386C23.449 11.8281 24 10.3008 24 8.66934C24 6.67823 23.3463 4.96378 22.1095 3.71128Z" fill="#6D6D6D"/>
<defs>
<linearGradient id="paint0_linear" x1="6.95187" y1="2.25" x2="6.95187" y2="22.5" gradientUnits="userSpaceOnUse">
<stop stop-color="#A8CF45"/>
<stop offset="1" stop-color="#A8CF45" stop-opacity="0"/>
</linearGradient>
</defs>
</svg>
