<svg width="16" height="16" viewBox="0 0 16 16" fill="none" xmlns="http://www.w3.org/2000/svg">
<g clip-path="url(#clip0)">
<path opacity="0.75" d="M0.499993 14C0.298404 12.146 4.17521 8.1369 6.42728 8C6.42728 8 4.23317 8 7.19763 8C10.1621 8 9.35456 11.5 6.42728 13C3.49999 14.5 3.99999 15.5 3.99999 15.5L1.49999 15L1.03478 14H0.499993Z" fill="url(#paint0_linear)"/>
<path d="M15.9598 13.7101C15.8895 13.3722 15.5586 13.1552 15.2205 13.2256C14.8826 13.2959 14.6657 13.6269 14.7361 13.9648C14.7766 14.1595 14.7283 14.359 14.6037 14.5123C14.5315 14.6011 14.3705 14.75 14.1037 14.75H1.89704C1.63023 14.75 1.46926 14.6011 1.39707 14.5123C1.27242 14.359 1.22417 14.1595 1.2647 13.9648C1.91332 10.8494 4.66129 8.57356 7.8347 8.49681C7.88967 8.49894 7.94488 8.5 8.00038 8.5C8.05607 8.5 8.11151 8.49891 8.1667 8.49678C10.4021 8.55041 12.4682 9.68262 13.7194 11.5487C13.9116 11.8354 14.2999 11.9119 14.5866 11.7197C14.8733 11.5275 14.9499 11.1393 14.7576 10.8526C13.7321 9.32306 12.2429 8.21088 10.545 7.65203C11.5797 6.87613 12.2504 5.63991 12.2504 4.25C12.2504 1.90656 10.3439 0 8.00038 0C5.65692 0 3.75038 1.90656 3.75038 4.25C3.75038 5.64075 4.42188 6.87762 5.45767 7.65347C4.50867 7.96591 3.6182 8.45206 2.83882 9.09313C1.4097 10.2687 0.416041 11.9083 0.0409472 13.7101C-0.0766153 14.2747 0.0642284 14.8545 0.427291 15.301C0.788572 15.7452 1.32429 16 1.89704 16H14.1037C14.6765 16 15.2122 15.7452 15.5734 15.301C15.9366 14.8545 16.0774 14.2747 15.9598 13.7101ZM5.00038 4.25C5.00038 2.59578 6.34617 1.25 8.00038 1.25C9.6546 1.25 11.0004 2.59578 11.0004 4.25C11.0004 5.85328 9.73617 7.16684 8.15223 7.24619C8.1017 7.24525 8.05107 7.24478 8.00038 7.24478C7.94995 7.24478 7.89951 7.24528 7.84913 7.24622C6.26492 7.16719 5.00038 5.8535 5.00038 4.25Z" fill="#6D6D6D"/>
</g>
<defs>
<linearGradient id="paint0_linear" x1="4.77671" y1="8" x2="4.77671" y2="15.5" gradientUnits="userSpaceOnUse">
<stop stop-color="#A8CF45"/>
<stop offset="1" stop-color="#A8CF45" stop-opacity="0"/>
</linearGradient>
<clipPath id="clip0">
<rect width="16" height="16" fill="white"/>
</clipPath>
</defs>
</svg>
