<svg width="24" height="24" viewBox="0 0 24 24" fill="none" xmlns="http://www.w3.org/2000/svg">
<g clip-path="url(#clip0)">
<path opacity="0.75" d="M4.55218 3.75C4.24979 0.969006 5.21844 0.205347 8.59655 0C8.59655 0 9.34977 2.75243e-06 13.7965 0C18.2432 -2.75243e-06 17.0318 5.25 12.6409 7.5C8.25 9.75 8.59655 22.5 8.59655 22.5H4.55218V9V3.75Z" fill="url(#paint0_linear)"/>
<path d="M19.3594 16.5057C19.8772 16.5057 20.2969 16.086 20.2969 15.5682V3.75C20.2969 1.68225 18.6146 0 16.5469 0H7.45312C5.38538 0 3.70312 1.68225 3.70312 3.75V20.25C3.70312 22.3177 5.38538 24 7.45312 24H16.5469C18.6146 24 20.2969 22.3177 20.2969 20.25C20.2969 19.7322 19.8772 19.3125 19.3594 19.3125C18.8416 19.3125 18.4219 19.7322 18.4219 20.25C18.4219 21.2839 17.5807 22.125 16.5469 22.125H7.45312C6.41925 22.125 5.57812 21.2839 5.57812 20.25V3.75C5.57812 2.71613 6.41925 1.875 7.45312 1.875H16.5469C17.5807 1.875 18.4219 2.71613 18.4219 3.75V15.5682C18.4219 16.086 18.8416 16.5057 19.3594 16.5057Z" fill="#6D6D6D"/>
<path d="M12 20.6776C12.5178 20.6776 12.9375 20.2578 12.9375 19.7401C12.9375 19.2223 12.5178 18.8026 12 18.8026C11.4822 18.8026 11.0625 19.2223 11.0625 19.7401C11.0625 20.2578 11.4822 20.6776 12 20.6776Z" fill="#6D6D6D"/>
<path d="M13.875 4.2713C13.875 3.75352 13.4553 3.3338 12.9375 3.3338H11.0625C10.5447 3.3338 10.125 3.75352 10.125 4.2713C10.125 4.78908 10.5447 5.2088 11.0625 5.2088H12.9375C13.4553 5.2088 13.875 4.78904 13.875 4.2713Z" fill="#6D6D6D"/>
</g>
<defs>
<linearGradient id="paint0_linear" x1="10.5458" y1="0" x2="10.5458" y2="22.5" gradientUnits="userSpaceOnUse">
<stop stop-color="#A8CF45"/>
<stop offset="1" stop-color="#A8CF45" stop-opacity="0"/>
</linearGradient>
<clipPath id="clip0">
<rect width="24" height="24" fill="white"/>
</clipPath>
</defs>
</svg>
