<svg width="24" height="24" viewBox="0 0 24 24" fill="none" xmlns="http://www.w3.org/2000/svg">
<path opacity="0.5" d="M17.25 10.5C17.25 13.8137 12.75 6.75 8.25 11.25C4.5 15.75 1.5 14.25 3 9C5.25 4.5 5.68629 3 9 3C23.25 6.75 17.25 7.18629 17.25 10.5Z" fill="url(#paint0_linear)"/>
<path d="M23.042 18.1516H16.3491L19.0819 9.42838L20.943 15.3912C21.068 15.7917 21.4374 16.0484 21.836 16.0484C21.9283 16.0484 22.0223 16.0346 22.1151 16.0056C22.6084 15.8516 22.8835 15.3269 22.7296 14.8336L19.9695 5.9907C19.8708 5.67462 19.6124 5.43415 19.2901 5.35849L14.7921 4.30267C14.5871 3.34473 13.8918 2.56637 12.9826 2.24401V0.935722C12.9826 0.418924 12.5637 0 12.0469 0C11.5301 0 11.1111 0.418923 11.1111 0.935769V2.24415C10.6114 2.42134 10.1762 2.73629 9.85167 3.14312L5.13786 2.03663C4.65959 1.92451 4.17626 2.20084 4.03048 2.66978L0.108526 15.2813C0.0532601 15.4007 0.0224162 15.5336 0.0224162 15.6738C0.0224162 15.6755 0.0224162 15.6772 0.0224162 15.6788C0.0219943 15.6973 0.0220881 15.7158 0.0227912 15.7343C0.0552757 18.4154 2.24641 20.5866 4.93512 20.5866C7.64399 20.5866 9.84783 18.3827 9.84783 15.6738C9.84783 15.5427 9.82083 15.4179 9.77213 15.3046L6.3036 4.23264L9.23977 4.92185C9.25631 6.45565 10.5092 7.69827 12.0468 7.69827C13.1354 7.69827 14.0812 7.07548 14.5467 6.16751L17.8959 6.95365L14.2174 18.6956C14.2016 18.746 14.1903 18.7968 14.1833 18.8475C14.163 18.924 14.1522 19.0044 14.1522 19.0873C14.1522 21.7962 16.3561 24 19.0649 24C21.7738 24 23.9777 21.7962 23.9777 19.0873C23.9777 18.5706 23.5588 18.1516 23.042 18.1516ZM4.93517 18.7151C3.58456 18.7151 2.43682 17.8301 2.04124 16.6096H7.82906C7.43357 17.8301 6.28583 18.7151 4.93517 18.7151ZM7.63349 14.7381H2.23736L4.92551 6.09391L7.63349 14.7381ZM12.0469 5.82677C11.5309 5.82677 11.1111 5.40701 11.1111 4.891C11.1111 4.37505 11.5309 3.95523 12.0469 3.95523C12.5628 3.95523 12.9827 4.375 12.9827 4.891C12.9826 5.40701 12.5628 5.82677 12.0469 5.82677ZM19.065 22.1286C17.7144 22.1286 16.5667 21.2437 16.1711 20.0232H21.959C21.5634 21.2437 20.4157 22.1286 19.065 22.1286Z" fill="#6D6D6D"/>
<defs>
<linearGradient id="paint0_linear" x1="10.5547" y1="3" x2="10.5547" y2="13.9145" gradientUnits="userSpaceOnUse">
<stop stop-color="#A8CF45"/>
<stop offset="1" stop-color="#A8CF45" stop-opacity="0"/>
</linearGradient>
</defs>
</svg>
